<?xml version="1.0" standalone="no"?>
<!DOCTYPE svg PUBLIC "-//W3C//DTD SVG 1.1//EN" "http://www.w3.org/Graphics/SVG/1.1/DTD/svg11.dtd" >
<svg xmlns="http://www.w3.org/2000/svg">
<metadata>
Created by FontForge 20120731 at Thu Aug 27 10:49:33 2015
 By Ads
</metadata>
<defs>
<font id="globel-iconfont" horiz-adv-x="1024" >
  <font-face 
    font-family="globel-iconfont"
    font-weight="500"
    font-stretch="normal"
    units-per-em="1024"
    panose-1="2 0 6 3 0 0 0 0 0 0"
    ascent="812"
    descent="-212"
    x-height="792"
    bbox="2 -212 1671 812"
    underline-thickness="50"
    underline-position="-100"
    unicode-range="U+0078-E654"
  />
<missing-glyph horiz-adv-x="374" 
d="M34 0v682h272v-682h-272zM68 34h204v614h-204v-614z" />
    <glyph glyph-name=".notdef" horiz-adv-x="374" 
d="M34 0v682h272v-682h-272zM68 34h204v614h-204v-614z" />
    <glyph glyph-name=".null" horiz-adv-x="0" 
 />
    <glyph glyph-name="nonmarkingreturn" horiz-adv-x="341" 
 />
    <glyph glyph-name="x" unicode="x" horiz-adv-x="1001" 
d="M281 543q-27 -1 -53 -1h-83q-18 0 -36.5 -6t-32.5 -18.5t-23 -32t-9 -45.5v-76h912v41q0 16 -0.5 30t-0.5 18q0 13 -5 29t-17 29.5t-31.5 22.5t-49.5 9h-133v-97h-438v97zM955 310v-52q0 -23 0.5 -52t0.5 -58t-10.5 -47.5t-26 -30t-33 -16t-31.5 -4.5q-14 -1 -29.5 -0.5
t-29.5 0.5h-32l-45 128h-439l-44 -128h-29h-34q-20 0 -45 1q-25 0 -41 9.5t-25.5 23t-13.5 29.5t-4 30v167h911zM163 247q-12 0 -21 -8.5t-9 -21.5t9 -21.5t21 -8.5q13 0 22 8.5t9 21.5t-9 21.5t-22 8.5zM316 123q-8 -26 -14 -48q-5 -19 -10.5 -37t-7.5 -25t-3 -15t1 -14.5
t9.5 -10.5t21.5 -4h37h67h81h80h64h36q23 0 34 12t2 38q-5 13 -9.5 30.5t-9.5 34.5q-5 19 -11 39h-368zM336 498v228q0 11 2.5 23t10 21.5t20.5 15.5t34 6h188q31 0 51.5 -14.5t20.5 -52.5v-227h-327z" />
    <glyph glyph-name="uniE600" unicode="&#xe600;" 
d="M291 677h442v-321h-442v321zM291 27h442v-128h-442v128zM847 480h-70v-168h-530v168h-70q-45 0 -77 -32t-32 -78v-282q0 -45 32 -77t77 -32h70v92h530v-92h70q45 0 77 32t32 77v282q0 46 -32 78t-77 32z" />
    <glyph glyph-name="uniE601" unicode="&#xe601;" 
d="M434 666h156v-156h-156v156zM434 366h156v-156h-156v156zM434 66h156v-156h-156v156z" />
    <glyph glyph-name="uniE602" unicode="&#xe602;" 
d="M390 567q0 -10 2 -19.5t6 -18.5t9.5 -17t12 -14.5t14.5 -12t16.5 -9t18.5 -5.5t20 -2q27 0 49.5 13t36 35.5t13.5 49.5t-13.5 50t-36 36t-49.5 13t-49.5 -13t-36 -36t-13.5 -50zM801 36l-123 98l-33 131q0 1 -1 3v1l-24 108l72 -36l48 -83q11 -18 33 -18q1 0 3 0.5t4 0.5
t4 1t4 1.5t3 1.5q13 8 17 23t-4 28l-59 101l-133 67q-5 3 -12 4h-160l-3 -1q-13 -3 -21 -14l-83 -115l-105 -42q-9 -4 -15 -12t-7.5 -17t2.5 -19q9 -23 34 -23q8 0 14 2l124 51l64 87l15 -94l-96 -112v-203q0 -19 13.5 -32.5t32.5 -13.5t32.5 13.5t13.5 32.5v168l77 91
q3 3 5.5 7.5t3.5 8.5l18 -1l37 -149l148 -118q6 -5 13.5 -7.5t14.5 -2.5q23 0 37 18q8 9 9.5 21.5t-3 24t-14.5 19.5z" />
    <glyph glyph-name="uniE603" unicode="&#xe603;" 
d="M895 296l-5 5q-25 20 -77 74q-22 23 -34 35q-120 120 -261 122h-2h-1h-1h-4q-139 -4 -257 -124q-8 -7 -16 -15.5t-17 -19.5q-12 -12 -19.5 -20t-18 -18.5t-20 -19t-18.5 -15.5q-2 -2 -4.5 -3.5t-4 -4t-2.5 -5.5q-1 -5 -0.5 -9.5t3.5 -8.5q2 -4 7 -7q25 -20 77 -74
q24 -26 33 -35q120 -119 259 -122h3h2h1h1h3q140 4 258 124q9 8 33 34q51 54 76 74q4 2 7 6t4 9q2 10 -5 18zM517 139q-59 0 -101 41.5t-42 100.5t41.5 101t100.5 42t101 -41.5t42 -100.5q0 -29 -11 -55.5t-30 -45.5t-45.5 -30.5t-55.5 -11.5zM516 318q0 33 29 47
q-14 4 -29 4q-36 0 -62 -25.5t-26 -62t26 -62.5t62.5 -25.5t62.5 26t25 62.5q-15 -15 -36 -15q-14 0 -26 7t-19 18.5t-7 25.5z" />
    <glyph glyph-name="uniE604" unicode="&#xe604;" 
d="M833 538h-159v117q0 11 -7.5 18.5t-18.5 7.5h-273q-10 0 -17.5 -7.5t-7.5 -18.5v-117h-158q-9 0 -16.5 -2.5t-14 -7.5t-11 -11t-7.5 -14t-3 -16q0 -22 15 -37t37 -15h18v-503q0 -11 7.5 -18t18.5 -7h552q5 0 10 2t8.5 5t5.5 8t2 10v503h19q21 0 36 15t15 36.5t-15 36.5
t-36 15zM394 11h-77v384h77v-384zM551 11h-77v384h76v-384h1zM707 11h-77v384h77v-384zM439 592h146v-54h-146v54z" />
    <glyph glyph-name="uniE605" unicode="&#xe605;" 
d="M768 60l-169 169q47 56 44 131t-56 128q-57 57 -137.5 57t-136.5 -57q-37 -37 -50.5 -87t0 -100t50.5 -87q57 -57 137 -57q67 0 121 43l168 -169zM342 242q-18 18 -29 40t-14.5 45.5t0 46.5t14.5 45t29 40q44 45 108 45q20 0 39.5 -5t37 -15.5t31.5 -24.5
q45 -45 45 -108.5t-45 -108.5q-43 -43 -108 -43t-108 43z" />
    <glyph glyph-name="uniE606" unicode="&#xe606;" 
d="M718 161l-206 206l-206 -206l-24 24l230 230l230 -230z" />
    <glyph glyph-name="uniE607" unicode="&#xe607;" 
d="M306 415l206 -206l206 206l24 -24l-230 -230l-230 230z" />
    <glyph glyph-name="uniE608" unicode="&#xe608;" 
d="M300 -57l345 345l-345 345l39 40l385 -385l-385 -385z" />
    <glyph glyph-name="uniE609" unicode="&#xe609;" 
d="M724 633l-345 -345l345 -345l-40 -40l-384 385l384 385z" />
    <glyph glyph-name="uniE60A" unicode="&#xe60a;" 
d="M887 617l-46 46l-329 -330l-329 330l-46 -46l330 -329l-330 -329l46 -46l329 330l329 -330l46 46l-330 329z" />
    <glyph glyph-name="uniE60B" unicode="&#xe60b;" 
d="M710 659h-396q-9 0 -15.5 -6.5t-6.5 -16.5v-696q0 -6 3 -11.5t8 -8.5t11 -3h396q9 0 15.5 6.5t6.5 16.5v696q0 10 -6.5 16.5t-15.5 6.5zM512 -15q-9 0 -17 4.5t-12.5 12.5t-4.5 17q0 14 10 24t24 10t24 -10t10 -24t-10 -24t-24 -10zM676 116h-328v466h328v-466z" />
    <glyph glyph-name="uniE60C" unicode="&#xe60c;" 
d="M911 410h-273q52 0 89 37t37 89.5t-37 89.5t-89 37t-89 -37t-37 -89q0 52 -37 89t-89 37t-89 -37t-37 -89.5t37 -89.5t89 -37h-274q-10 0 -17.5 -7.5t-7.5 -17.5v-126q0 -4 1.5 -8t3.5 -7t5.5 -5.5t7 -3.5t7.5 -1h52v-295q0 -11 7.5 -18.5t17.5 -7.5h646q10 0 17.5 7.5
t7.5 18.5v295h51q11 0 18.5 7.5t7.5 17.5v126q0 10 -7.5 17.5t-18.5 7.5zM583 537q0 22 16.5 38t39 16t38.5 -16t16 -38q0 -15 -7.5 -28t-20 -20t-27.5 -7h-55v55zM441 482h-55q-11 0 -21.5 4t-17.5 11.5t-11.5 17.5t-4.5 22q0 22 16 38t39 16t39 -16t16 -38v-55zM593 21
q0 -7 -3.5 -12.5t-9.5 -9t-13 -3.5h-100q-10 0 -17.5 7.5t-7.5 17.5v374h151v-374z" />
    <glyph glyph-name="uniE60D" unicode="&#xe60d;" 
d="M436 406v159q-50 -13 -93 -41t-73.5 -66.5t-47.5 -87.5t-17 -101q0 -127 90 -217t217 -90q83 0 154 41t112 111.5t41 154.5q0 106 -65.5 189t-167.5 108v-160h-150zM486 667h52v-224h-52v224zM586 620v-54q102 -25 167.5 -108t65.5 -189q0 -127 -90 -217t-217 -90
t-217 90t-90 217q0 105 64.5 187.5t166.5 108.5v55q-31 -7 -60 -19t-54.5 -27.5t-48 -35.5t-41.5 -43t-34 -49.5t-25 -55t-15.5 -59.5t-5.5 -62q0 -98 48.5 -181t131 -131t180.5 -48t180.5 48t131 131t48.5 181q0 84 -36.5 158.5t-102 125t-147.5 67.5z" />
    <glyph glyph-name="uniE60E" unicode="&#xe60e;" 
d="M835 98h-9v324q0 117 -84 185.5t-225 68.5q-48 0 -90 -8t-75.5 -23.5t-60.5 -38t-45 -50.5t-27.5 -62t-9.5 -72v-324h-9q-7 0 -12.5 -3t-8.5 -8.5t-3 -12.5v-54q0 -10 7 -17t17 -7h64v-28q0 -11 3.5 -20.5t9.5 -17.5t14.5 -14t18.5 -9t21 -3q28 0 47.5 18.5t19.5 45.5v28
h238v-28q0 -27 19.5 -45.5t47.5 -18.5t47.5 18.5t19.5 45.5v28h65q10 0 17 7t7 17v54q0 10 -7 17t-17 7zM638 196q0 13 6.5 24t17.5 17.5t24 6.5q20 0 33.5 -14t13.5 -34t-13.5 -34t-33.5 -14q-13 0 -24 6.5t-17.5 17.5t-6.5 24zM349 244q12 0 23 -6.5t17.5 -17.5t6.5 -24
q0 -8 -2.5 -15t-6.5 -13t-10 -10.5t-13.5 -7t-14.5 -2.5q-20 0 -34 14t-14 34q0 8 2.5 15t7 13t10 10.5t13 7t15.5 2.5zM589 395l70 71q7 7 7 17t-7 17t-17 7t-17 -7l-104 -105h-97l81 81q7 8 7 17.5t-7 16.5t-17 7t-17 -7l-115 -115h-62v33q0 84 59.5 129t163.5 45
t163.5 -45t59.5 -129v-33h-151z" />
    <glyph glyph-name="uniE60F" unicode="&#xe60f;" 
d="M870 33q15 16 3 35l-196 291l117 113q23 23 23 56t-23 56q-16 15 -36 20t-40.5 0t-35.5 -20l-113 -117l-292 196q-8 5 -17.5 4t-16.5 -8l-59 -58q-8 -9 -7 -21q0 -6 2.5 -11t7.5 -9l262 -216l-135 -140l-105 45q-8 4 -17 3t-16 -8l-65 -65q-10 -10 -8 -24q2 -9 8 -15
q1 -1 3 -2.5t4 -2.5l150 -78l78 -150q7 -12 20 -14q14 -2 24 7l65 66q15 15 5 33l-46 105l140 135l216 -262q8 -10 20 -10.5t21 8.5z" />
    <glyph glyph-name="uniE610" unicode="&#xe610;" 
d="M916 424q12 12 12 28t-12 28q-7 7 -17.5 9.5t-20.5 0t-17 -9.5l-122 -122q-7 -7 -16.5 -7t-16.5 7q-5 4 -6.5 10t0 12t6.5 11l122 122q11 11 11 27t-11 28q-8 8 -18 10.5t-20 -0.5t-18 -10l-121 -122q-7 -7 -17 -7t-16.5 7t-6.5 17t6 17l122 121q8 8 10.5 18t0 20
t-10.5 17.5t-18 10t-20 0t-17 -9.5l-139 -139q-20 -20 -28.5 -46t-12.5 -63t-9 -54l-2 2q-216 216 -288 287q-3 4 -6.5 5t-6 0.5t-4.5 -3.5t-2 -9q-4 -43 1 -100.5t27 -119.5q44 -137 137 -239l-148 -148h-1v-1l-24 -23q-8 -8 -7.5 -19.5t7.5 -19.5l50 -50q8 -8 19.5 -8
t19.5 8l172 172l86 -87l76 69l153 -152q2 -3 5.5 -5t7 -2.5t7 -0.5t6.5 0.5t6.5 2.5t5.5 5l50 49q8 8 8 19.5t-8 19.5l-228 228q18 5 54.5 9t62.5 12.5t47 29.5z" />
    <glyph glyph-name="uniE611" unicode="&#xe611;" 
d="M836 583h-91v61q0 5 -2 9.5t-5.5 8t-8.5 5.5t-10 2h-53q-11 0 -18.5 -7.5t-7.5 -17.5v-148h-1q-10 0 -17.5 7.5t-7.5 17.5v62h-177v61q0 5 -2 9.5t-5.5 8t-8 5.5t-9.5 2h-54q-5 0 -9.5 -2t-8 -5.5t-5.5 -8t-2 -9.5v-148h-1q-7 0 -13 3t-9.5 9t-3.5 13v62h-116
q-10 0 -17.5 -7.5t-7.5 -18.5v-623q0 -11 7.5 -18.5t17.5 -7.5h646q10 0 17.5 7.5t7.5 18.5v623q0 20 -19 25q-3 1 -6 1zM791 -25h-556v385h556v-385zM532 85l165 165l-45 45l-165 -165l-113 114l-46 -46l159 -158z" />
    <glyph glyph-name="uniE612" unicode="&#xe612;" 
d="M775 538q-27 37 -64 63.5t-68.5 38.5t-63.5 18t-46.5 6.5t-20.5 -0.5h-5q-18 0 -41.5 -3t-63.5 -14t-81 -39t-72 -70q-19 -26 -29.5 -57t-12 -74t17.5 -98.5t59 -116.5q13 -19 48 -66t63.5 -84.5t37.5 -49.5l40 -52q5 -8 15.5 -14.5t23.5 -6.5q26 0 38 20l1 1q1 2 3 4
t4.5 5t5 7t5.5 8l6 8q3 4 6 7.5t5.5 6.5t4.5 6q18 22 74 97t75 103q40 61 59 116.5t17.5 98.5t-12 74t-29.5 57zM512 258q-50 0 -86 35.5t-36 86t36 86t86 35.5t86 -35.5t36 -85.5q0 -25 -10 -47.5t-26 -39t-38.5 -26t-47.5 -9.5z" />
    <glyph glyph-name="uniE613" unicode="&#xe613;" 
d="M508 663q-76 0 -145.5 -29.5t-119.5 -79.5t-79.5 -119.5t-29.5 -145.5q0 -102 50 -188.5t136.5 -136.5t188 -50t188 50t136.5 136.5t50 188t-50 188t-136.5 136.5t-188.5 50zM701 260h-225v271h64v-207h161v-64z" />
    <glyph glyph-name="uniE614" unicode="&#xe614;" 
d="M217 -89q4 12 12.5 34t41.5 90t73 136t110 164t151 182l-2 7q-8 4 -34 -20q-2 -2 -16 -15t-22.5 -21t-26 -25.5t-31 -31.5t-33 -36t-35.5 -42t-35.5 -46.5t-36 -52.5t-34 -56.5t-32.5 -62.5q-2 7 -4.5 18t-6.5 44.5t-3 67t12 80t32 87.5t62.5 85t99.5 78q-1 -4 -1.5 -11
t1.5 -28.5t8 -41.5q2 4 5 10.5t15 26t26.5 37t40.5 39t56.5 37.5t74.5 27t93 12q0 -1 4 -0.5t9.5 -0.5t13 -1.5t15 -4t14.5 -7t12.5 -11t8.5 -16t2 -21t-7 -27.5q-9 -26 -28.5 -50t-40.5 -40t-40.5 -28.5t-32.5 -17.5l-12 -6q39 -11 103 6q0 -4 -1 -10t-8 -24.5t-17 -36
t-31.5 -39t-49 -37.5t-71.5 -29t-97 -16q3 -2 12.5 -4.5t50 -6t96.5 -0.5q-1 -4 -4.5 -11t-16.5 -27.5t-29.5 -40t-46.5 -44t-64.5 -44t-85.5 -36.5t-108 -24q-1 -6 -3 -14t-10 -27t-19 -33.5t-32 -27.5t-47 -15z" />
    <glyph glyph-name="uniE615" unicode="&#xe615;" 
d="M896 302h-11q-1 10 -5.5 40.5t-4.5 33.5q-6 64 13 111q7 16 0.5 31t-22.5 21q-16 7 -32 -1q-8 -4 -21 -8l-6 -1q-12 -4 -18.5 -5.5t-19 -4.5t-20.5 -4.5t-18 -3t-18 -1.5q-30 0 -87 25q-70 30 -114 30q-13 0 -27 -2t-24.5 -4t-25.5 -6.5t-23.5 -7.5t-24.5 -9
q-59 -21 -87 -24q-23 -2 -66 11q-15 5 -23 7q-7 2 -12 4t-9 4q-14 7 -30 2q-7 -2 -13 -7t-10 -12q-8 -17 -1 -34q19 -47 13 -111q0 -4 -1.5 -13.5t-3 -20t-3 -22.5t-2.5 -18h-12q-3 0 -5.5 -1t-5 -2.5t-5 -3.5t-3.5 -4.5t-2 -5.5t-1 -6v-185q0 -7 3 -12t8 -8t11 -3h49v-51
q0 -9 6.5 -15.5t15.5 -6.5h103q6 0 11 3t8 8t3 11v51h378v-51q0 -9 6.5 -15.5t15.5 -6.5h103q9 0 15.5 6.5t6.5 15.5v51h48q5 0 9 2t7 5t5 7t2 9v185q0 6 -3 11.5t-8 8.5t-12 3zM481 302h-253v82q0 10 6.5 16.5t16.5 6.5h208q4 0 8.5 -2t7.5 -5t4.5 -7t1.5 -9v-82zM796 302
h-253v82q0 4 1 7.5t3 6t5 4.5t6 3.5t7 1.5h208q5 0 9 -2t7 -5t5 -7t2 -9v-82z" />
    <glyph glyph-name="uniE616" unicode="&#xe616;" 
d="M835 582h-118v-61q0 -11 -7.5 -18.5t-17.5 -7.5h-53q-11 0 -18.5 7.5t-7.5 18.5v61h-203v-61q0 -7 -3.5 -13t-9.5 -9.5t-13 -3.5h-53q-4 0 -7 1t-6 2.5t-5.5 4t-4 5t-2.5 6t-1 7.5v61h-116q-10 0 -17.5 -7.5t-7.5 -17.5v-624q0 -11 7.5 -18.5t17.5 -7.5h646q7 0 12.5 3.5
t9 9.5t3.5 13v624q0 4 -1 8t-3.5 7t-5.5 5.5t-7 3.5t-8 1zM790 -26h-556v385h556v-385zM613 296h105v-105h-105v105zM460 296h104v-105h-104v105zM306 296h105v-105h-105v105zM460 142h104v-104h-104v104zM306 142h105v-104h-105v104zM436 404v239q0 7 -3.5 13t-9 9.5
t-12.5 3.5h-54q-3 0 -6.5 -1t-6 -2.5t-5 -4t-4 -5.5t-2.5 -6t-1 -7v-240h104v1zM744 404v239q0 3 -0.5 5.5t-1.5 4.5t-2.5 4.5t-3 4t-4 3t-4.5 2.5t-4.5 1.5t-5.5 0.5h-53q-7 0 -13 -3.5t-9.5 -9.5t-3.5 -13v-239h105z" />
    <glyph glyph-name="uniE617" unicode="&#xe617;" 
d="M674 119h-14q-7 0 -12 0.5t-14 0.5h-409q-75 0 -128 53.5t-53 128.5q0 70 50.5 114.5t130.5 44.5q20 0 39 -4q78 106 175 106q65 0 119.5 -35t81.5 -94l6 2h8l6 2h8h6q66 0 113 -46.5t47 -112.5q0 -78 -61 -126q-44 -34 -99 -34zM271 184h365q26 -1 38 -1q40 0 68 28
t28 67.5t-28 67.5t-68 28q-10 0 -20 -2t-20 -7l-34 -15l-10 35q-7 25 -22 46.5t-34.5 36t-44 23t-50.5 8.5q-38 0 -74 -29t-60 -67l-14 -23l-25 10q-10 3 -20.5 5t-20.5 2q-31 0 -56 -8.5t-43 -31t-18 -55.5q0 -49 34 -83.5t83 -34.5h46zM804 330l-50 39q21 28 21 63
q0 27 -13.5 50.5t-37 37t-50.5 13.5q-29 0 -53 -14.5t-37 -39.5l-57 29q22 41 61.5 65t85.5 24q68 0 116.5 -48.5t48.5 -116.5q0 -57 -35 -102zM704 731l63 -10l-16 -99l-63 10zM527 703l59 -82l-52 -37l-59 81zM882 418l98 -20l-12 -63l-99 20zM924 629l35 -53l-83 -56
l-36 54zM139 92l63 -9l-16 -120l-64 9zM315 92l63 -9l-34 -238l-63 9zM496 92l64 -9l-34 -238l-64 9zM671 92l64 -9l-17 -120l-63 9z" />
    <glyph glyph-name="uniE618" unicode="&#xe618;" 
d="M239 295.5q0 10.5 -7.5 18t-18.5 7.5h-102q-11 0 -18.5 -7.5t-7.5 -18t7.5 -18t18.5 -7.5h102q11 0 18.5 7.5t7.5 18zM521 576q7 0 13 3.5t9.5 9.5t3.5 13v102q0 11 -7.5 18.5t-18.5 7.5t-18.5 -7.5t-7.5 -18.5v-102q0 -7 3.5 -13t9.5 -9.5t13 -3.5zM276 73l-72 -72
q-7 -7 -7 -18t7 -18q4 -4 8.5 -6t9.5 -2t10 2t8 6l73 72q5 5 6.5 11.5t0 13.5t-6.5 11q-8 8 -18.5 8t-18.5 -8zM931 321h-103q-7 0 -13 -3.5t-9 -9t-3 -12.5q0 -4 0.5 -7.5t2.5 -6.5l4 -4q2 -3 5 -4.5t6.5 -2.5t6.5 -1h103q7 0 12.5 3.5t9 9.5t3.5 13q0 5 -2 9.5t-5.5 8
t-8 5.5t-9.5 2zM766 92q-8 8 -18.5 8t-18 -7.5t-7.5 -18.5t8 -18l72 -72q7 -8 18 -8t18.5 7.5t7.5 18t-8 18.5zM765 490l73 72q7 8 7 18.5t-7.5 18t-18 7.5t-18.5 -8l-72 -72q-7 -7 -7 -18t7 -18q5 -5 11.5 -7t13 0t11.5 7zM521.5 525q-95.5 0 -163 -67.5t-67.5 -163
t67.5 -163t163 -67.5t163 67.5t67.5 163t-67.5 163t-163 67.5zM520.5 115q-74.5 0 -127 52.5t-52.5 127t52.5 127t127 52.5t127 -52.5t52.5 -127t-52.5 -127t-127 -52.5zM521 -12q-11 0 -18.5 -7.5t-7.5 -18.5v-102q0 -11 7.5 -18.5t18.5 -7.5q7 0 13 3.5t9.5 9.5t3.5 13
v102q0 11 -7.5 18.5t-18.5 7.5zM295 491q5 -5 11.5 -6.5t13 0t11.5 6.5t6.5 11.5t0 13t-6.5 11.5l-73 73q-3 3 -8 5t-10 2t-9.5 -2t-8.5 -5q-7 -8 -7 -18.5t7 -18.5z" />
    <glyph glyph-name="uniE619" unicode="&#xe619;" 
d="M811 400q-8 0 -17 -0.5t-17.5 -2.5t-17.5 -4q-19 52 -56.5 91.5t-86.5 61.5t-103 23q-63 0 -119.5 -41.5t-96.5 -103.5q-14 4 -28 6t-28 2q-48 0 -88 -14t-68 -39.5t-43.5 -62t-15.5 -80.5q-1 -93 62 -159.5t152 -66.5l520 -1q33 -2 51 -2q50 0 93.5 26.5t68.5 71.5
t25 98.5t-25 98.5t-68 71.5t-94 26.5zM811 59q-18 0 -49 1l-522 1q-67 1 -115 52t-48 123q0 39 14.5 68t39 45.5t52.5 24t58 7.5q29 0 57 -11l21 -8l11 19q33 56 81.5 96t101.5 40q71 0 128.5 -46t77.5 -119l8 -30l27 14q28 13 57 13q57 0 96.5 -42.5t39.5 -102.5
t-40 -102.5t-96 -42.5z" />
    <glyph glyph-name="uniE61A" unicode="&#xe61a;" 
d="M902 545q0 65 -46.5 111.5t-111.5 46.5q-75 0 -124 -62q-51 31 -109 31q-24 0 -47.5 -7.5t-41 -18.5t-34.5 -26.5t-27.5 -28t-19.5 -25.5q-11 3 -21 4t-21 1q-22 0 -42 -3.5t-37.5 -10.5t-32 -17t-26 -23t-19.5 -28t-12 -32.5t-4 -37.5q0 -72 51 -126.5t122 -54.5h406
q24 -1 39 -1q62 0 107 48t45 111q0 35 -17 69q11 18 17 38.5t6 41.5zM744 287q-11 0 -37 1l-408 1q-33 0 -61.5 18.5t-44.5 48.5t-16 63q0 52 36.5 76.5t85.5 24.5q11 0 22 -2t21 -6l20 -7l11 18q25 41 62 69.5t76 28.5q21 0 41.5 -5.5t38.5 -15.5t33 -24.5t26 -32.5t17 -39
l8 -28l27 12q7 3 14 5t14 3t14 1q21 0 39.5 -8t32 -21.5t21.5 -32t8 -39.5q0 -27 -13.5 -52t-37 -41t-50.5 -16zM845 510q-21 18 -46.5 28t-54.5 10q-19 0 -37 -5q-16 37 -47 67q8 10 17 17.5t20 13t23 8.5t24 3q44 0 75.5 -31.5t31.5 -75.5q0 -18 -6 -35zM204 -9l50 -7
l17 195l-51 7zM361 -126l50 -7l33 312l-50 7zM541 -126l50 -7l33 312l-50 7zM731 -9l50 -7l17 195l-50 7zM902 545q0 65 -46.5 111.5t-111.5 46.5q-75 0 -124 -62q-51 31 -109 31q-24 0 -47.5 -7.5t-41 -18.5t-34.5 -26.5t-27.5 -28t-19.5 -25.5q-11 3 -21 4t-21 1
q-22 0 -42 -3.5t-37.5 -10.5t-32 -17t-26 -23t-19.5 -28t-12 -32.5t-4 -37.5q0 -72 51 -126.5t122 -54.5h406q24 -1 39 -1q62 0 107 48t45 111q0 35 -17 69q11 18 17 38.5t6 41.5zM744 287q-11 0 -37 1l-408 1q-33 0 -61.5 18.5t-44.5 48.5t-16 63q0 52 36.5 76.5t85.5 24.5
q11 0 22 -2t21 -6l20 -7l11 18q25 41 62 69.5t76 28.5q21 0 41.5 -5.5t38.5 -15.5t33 -24.5t26 -32.5t17 -39l8 -28l27 12q7 3 14 5t14 3t14 1q21 0 39.5 -8t32 -21.5t21.5 -32t8 -39.5q0 -27 -13.5 -52t-37 -41t-50.5 -16zM845 510q-21 18 -46.5 28t-54.5 10q-19 0 -37 -5
q-16 37 -47 67q8 10 17 17.5t20 13t23 8.5t24 3q44 0 75.5 -31.5t31.5 -75.5q0 -18 -6 -35zM204 -9l50 -7l17 195l-51 7zM361 -126l50 -7l33 312l-50 7zM541 -126l50 -7l33 312l-50 7zM731 -9l50 -7l17 195l-50 7z" />
    <glyph glyph-name="uniE61B" unicode="&#xe61b;" 
d="M517 670q-81 0 -138 -57.5t-57 -138.5q0 -16 8 -29.5t21.5 -21.5t29.5 -8q25 0 42 17.5t17 43.5q0 20 10.5 38t28 28t38.5 10q15 0 29.5 -6t24.5 -16t16 -24.5t6 -29.5q0 -8 -1 -16.5t-4.5 -19.5t-12 -21t-21.5 -17q-5 -3 -38 -17q-17 -8 -27 -12t-29 -13t-30.5 -15.5
t-29 -16t-28.5 -17.5t-23 -19t-19.5 -20.5t-12 -21t-4.5 -22.5v-314q0 -9 6.5 -15.5t15.5 -6.5h354q9 0 15.5 6.5t6.5 15.5v562q0 80 -57 137t-137 57z" />
    <glyph glyph-name="uniE61C" unicode="&#xe61c;" 
d="M827 -75l-175 232l74 42q13 7 12 22l-24 424q-1 6 -4 11.5t-8.5 8.5t-11.5 3h-356q-9 0 -16 -7t-8 -16l-24 -424q0 -7 3 -13t9 -9l75 -43l-175 -231q-5 -8 -4 -18t9 -16q7 -4 15 -4q12 0 19 9l18 24h516l18 -24l4 -4q2 -2 4.5 -3t5 -1.5t5.5 -0.5q8 0 14 4q8 6 9.5 16
t-4.5 18zM617 252q-3 0 -6 0.5t-6 1.5t-5.5 2.5t-5.5 3.5l-4 4q-3 2 -4 4l-4 6q-1 2 -2 5t-1.5 6t-0.5 7q0 5 1.5 10t4 9.5t6 8t8 6t9.5 4t10 1.5q17 0 28.5 -11.5t11.5 -27.5q0 -5 -1 -9.5t-3 -8.5t-5 -7l-6 -6q-3 -3 -7 -5t-8.5 -3t-9.5 -1zM364 609h296l13 -230h-322z
M408 331q5 0 9.5 -1t8.5 -3t7 -4.5t6 -6t5 -7.5t3 -8.5t1 -8.5q0 -17 -11.5 -28.5t-28.5 -11.5q-5 0 -10 1.5t-9.5 4t-8 6t-6 8t-4 9.5t-1.5 11q0 16 11.5 27.5t27.5 11.5zM415 133l85 -49q6 -3 12 -3q3 0 6 1l6 2l86 49l62 -82h-318zM291 -32l26 35h391l27 -35h-444z" />
    <glyph glyph-name="uniE61D" unicode="&#xe61d;" 
d="M860 637h-696q-5 0 -10 -2t-8.5 -5.5t-5.5 -8t-2 -9.5v-496q0 -11 7.5 -18.5t18.5 -7.5h102v-158q0 -18 16 -24q2 -1 3.5 -1t3 -0.5t3 -0.5t3.5 0.5t3.5 1t3.5 1t3.5 1.5t2.5 2l3 3l162 175h387q11 0 18.5 7.5t7.5 18.5v496q0 10 -7.5 17.5t-18.5 7.5zM500 190h-228v64
h228v-64zM752 332h-480v64h480v-64zM752 473h-480v64h480v-64z" />
    <glyph glyph-name="uniE61E" unicode="&#xe61e;" 
d="M905 340q-1 5 -3 9t-5 7t-7.5 4.5t-8.5 1.5h-33l-20 49l-5 12h34q5 0 9 1.5t7.5 5t5.5 8t2 9.5q0 10 -7 17t-17 7h-54l-5 12l-15 35q-3 7 -9 11t-13 4h-506q-16 0 -23 -15l-19 -47h-54q-7 0 -12.5 -3.5t-8.5 -9t-3 -11.5q0 -10 7 -17t17 -7h34l-5 -12l-20 -49h-33
q-6 0 -11.5 -2.5t-9 -7.5t-3.5 -12l-22 -245q-1 -5 1 -9.5t5 -8.5q2 -2 4 -3.5t4 -2.5t4.5 -1.5t5.5 -0.5h45v-42q0 -10 7.5 -17t16.5 -7h142q10 0 17 7t7 17v42h327v-42q0 -10 7 -17t16 -7h142q10 0 17 7t7 17v42h39q10 0 17.5 8t6.5 18zM308 177h-139l9 83h144l9 -83h-23z
M240 362l50 123h435l51 -123h-61q-6 39 -37.5 65t-73 26t-73 -26t-37.5 -65h-254zM666 362h-122q6 19 22.5 30.5t38 11.5t38.5 -11.5t23 -30.5zM628 177h-241l-9 83h259zM823 177h-139l9 83h144l9 -83h-23z" />
    <glyph glyph-name="uniE61F" unicode="&#xe61f;" 
d="M960 298l-431 382q-7 6 -17 6t-17 -6l-431 -382q-6 -5 -8 -13t1 -15q7 -17 24 -17h120v-274h-63q-7 0 -13 -3t-9 -9t-3 -13v-38q0 -3 1 -6v-4q1 -3 2.5 -5t3.5 -3l4 -4l4 -2t4.5 -1.5t5.5 -0.5h748q10 0 17.5 7.5t7.5 18.5v38q0 7 -3 13t-9 9t-13 3h-63v274h120
q8 0 14.5 4.5t9.5 12.5q6 16 -7 28zM317 -20v273h77v-273h-77zM474 -20v273h76v-273h-76zM707 -20h-77v273h77v-273z" />
    <glyph glyph-name="uniE620" unicode="&#xe620;" 
d="M347 269h125v-239h-239v212q-11 201 200 304l55 -81q-136 -71 -141 -196zM651 269h125v-239h-239v212q-11 201 201 304l54 -81q-35 -20 -61.5 -41.5t-44.5 -46t-26.5 -51.5t-8.5 -57z" />
    <glyph glyph-name="uniE621" unicode="&#xe621;" 
d="M677 307h-125v239h239v-212q11 -201 -201 -304l-54 81q136 71 141 196zM373 307h-125v239h239v-212q11 -201 -201 -304l-54 81q141 77 141 196z" />
    <glyph glyph-name="uniE622" unicode="&#xe622;" 
d="M158 324v-361q0 -14 3 -25t7 -16t8.5 -8t7.5 -4h3h62v449h-62q-10 0 -16 -3.5t-8.5 -8.5t-4 -10.5t-0.5 -8.5v-4zM822 404h-254q12 22 21 44.5t14.5 41.5t9.5 35t5.5 29.5t2 19.5t0.5 9q1 10 -1 19t-5.5 17t-9 15t-12 13t-14.5 10t-17 6.5t-18 2.5q-23 0 -41.5 -10
t-29.5 -27.5t-12 -39.5q0 -5 -2 -18t-11.5 -42.5t-25.5 -58t-50 -60t-79 -52.5v1h-1v-449h436l2 1l1 -1h3q24 0 32 23l1 1l95 390q4 15 4 27.5t-3 20.5t-8 14t-11 9.5t-11 5.5t-8 3h-3z" />
    <glyph glyph-name="uniE623" unicode="&#xe623;" 
d="M765 233l-10 5q-13 8 -21 21q-7 14 -7 28.5t7.5 28t21.5 21.5l9 6q8 4 10.5 13t-2.5 16l-57 99q-5 8 -13.5 10.5t-16.5 -2.5l-9 -5q-3 -2 -5 -3t-4.5 -1.5t-5 -1.5t-4.5 -1.5t-4 -0.5h-6q-24 0 -40.5 17t-16.5 41v11q0 8 -6.5 14.5t-15.5 6.5h-114q-9 0 -15.5 -6.5
t-6.5 -15.5v-11q0 -15 -7 -28q-12 -20 -35.5 -26t-43.5 5l-9 5q-5 3 -11 3t-11 -2.5t-8 -8.5l-57 -98q-2 -4 -2.5 -8.5t0.5 -8.5q2 -9 10 -13l10 -6q3 -1 6 -3.5t5.5 -5t5 -5.5t4.5 -6q7 -15 7 -29.5t-7.5 -28t-21.5 -21.5l-9 -5q-8 -5 -10 -13.5t2 -16.5l57 -99
q5 -7 14 -10q4 -1 8 -0.5t8 2.5l9 6q7 4 14 6t15 2q23 0 40 -17t17 -41v-11q5 -17 22 -21h114q9 0 15.5 6.5t6.5 15.5v10q0 8 2 15t5 14q12 20 35 26t44 -5l9 -6q8 -4 16.5 -2t13.5 10l57 99q4 8 2 16.5t-10 13.5zM697 237q10 -18 27 -31l-36 -62q-23 10 -47.5 8t-46 -15
t-33.5 -34q-11 -19 -13 -40h-72q-2 15 -8 29t-15 25t-21 19t-26.5 12.5t-29.5 4.5q-11 0 -21 -2t-20 -7l-36 63q31 22 39 60t-11 71q-5 9 -12 17t-16 14l36 63q35 -16 72.5 -3.5t55.5 44.5q11 18 13 40h72q4 -38 32.5 -64t67.5 -26q11 0 21 2t20 6l36 -62q-31 -23 -39 -60.5
t11 -71.5zM512 411q-33 0 -61.5 -16.5t-44.5 -45t-16 -61.5q0 -20 6 -38.5t17.5 -33.5t26.5 -26.5t33.5 -18t38.5 -6.5q51 0 87 36t36 87q0 17 -4.5 32.5t-12.5 29t-19.5 25t-25 19.5t-29 12.5t-32.5 4.5zM512 209q-33 0 -56 23t-23 56q0 16 6.5 30.5t17 25.5t25 17t30.5 6
q13 0 25 -4t22 -11.5t17 -17t11 -21.5t4 -25q0 -33 -23 -56t-56 -23z" />
    <glyph glyph-name="uniE624" unicode="&#xe624;" 
d="M512 57q-9 1 -15 6l-209 209q-20 20 -30.5 46t-10.5 54q0 59 41 100q40 41 100 41t101 -41l23 -23l24 23q26 27 63 36.5t74 0t63 -36.5q41 -41 41 -100t-41 -100l-209 -209q-2 -2 -4.5 -3.5t-5 -2t-5.5 -0.5zM388 470q-40 0 -69 -28.5t-29 -69.5t29 -69l193 -193l193 193
q19 19 26 44t0 50.5t-26 44.5q-28 27 -69.5 27t-69.5 -27l-39 -39q-6 -7 -15 -7t-15 7l-39 39q-29 28 -70 28z" />
    <glyph glyph-name="uniE625" unicode="&#xe625;" 
d="M512 57q-4 0 -8 1.5t-7 4.5l-209 209q-20 20 -30.5 46t-10.5 54q0 59 41 100q40 41 100 41t100 -41l24 -23l24 23q26 27 63 36.5t74 0t63 -36.5q20 -20 31 -46.5t11 -53.5t-11 -53.5t-31 -46.5l-209 -209q-2 -2 -4.5 -3.5t-5 -2t-5.5 -0.5z" />
    <glyph glyph-name="uniE626" unicode="&#xe626;" 
d="M891 233l-245 157q-5 3 -10 3q-8 0 -13 -5t-5 -13l1 -117h-458q-10 0 -18.5 -5t-13.5 -13.5t-5 -18.5v-22h758q7 0 12.5 5.5t5.5 12.5q0 3 -1 5l-2 4q-1 2 -3 4z" />
    <glyph glyph-name="uniE627" unicode="&#xe627;" 
d="M546 435q-78 42 -164 20t-130 -96q-35 -56 -28 -123q-7 -119 43 -231q6 -25 21 -46t37 -34q45 -25 94 -12t74 57q12 19 15 43q13 25 22 39q13 19 36 40q2 1 3 2.5t3 2.5l2 2q2 1 4 3l2 2l2 2l3 3l7 5h-1q21 20 33 41q45 73 22 155t-100 125zM803 479q-20 6 -40.5 2.5
t-37.5 -13t-29.5 -25.5t-17.5 -36q-11 -41 10 -77.5t62 -47.5t77.5 10t47.5 62t-10 77.5t-62 47.5zM611 485q33 -8 62.5 9t38.5 49.5t-8 62t-50 38.5q-22 6 -43 0t-36.5 -21.5t-21.5 -36.5q-8 -33 9 -62.5t49 -38.5zM406 506q33 -9 62.5 8t38.5 50t-8 62.5t-50 38
t-62.5 -8.5t-38.5 -50q-12 -47 24 -81q15 -14 34 -19zM302 502q9 33 -8 62.5t-50 38.5t-62.5 -8t-38 -50t8.5 -62.5t49 -38.5q17 -4 33 -1.5t29.5 10t24 20.5t14.5 29z" />
    <glyph glyph-name="uniE628" unicode="&#xe628;" 
d="M456 159q-6 1 -10 4l-120 120l20 20l110 -110l220 220l19 -20l-229 -230q-2 -2 -4.5 -3t-5.5 -1z" />
    <glyph glyph-name="uniE629" unicode="&#xe629;" 
d="M657 161l-108 -62v124h-58v-124l-108 62l-29 -50l108 -62l-108 -63l29 -50l108 62v-124h58v124l108 -62l29 50l-108 63l108 62zM325 225zM963 516q0 36 -14 69.5t-38 57.5t-57.5 38t-69.5 14q-42 0 -78.5 -18t-62.5 -50q-18 11 -38 18.5t-42 11.5t-44 4q-34 0 -65.5 -12
t-56.5 -32.5t-41.5 -38.5t-30.5 -37q-23 5 -47 5q-89 0 -143 -47.5t-54 -124.5q0 -54 26 -101.5t72 -76.5t99 -29h38v58h-38q-57 0 -98.5 45t-41.5 104q0 40 22.5 67t52.5 37.5t65 10.5q25 0 49 -9l22 -9l13 20q28 47 70 80t87 33q61 0 110.5 -37.5t66.5 -96.5l10 -32l30 14
q23 11 48 11q48 0 81.5 -34t33.5 -81q0 -12 -2 -24t-6.5 -22.5t-11 -20.5t-14 -19t-17 -16t-19.5 -12t-21.5 -7.5t-23.5 -2.5t-42 1h-18v-58h8h7h3q27 -1 42 -1q47 0 87 25.5t63 67.5t23 89q0 20 -5 39.5t-14 37.5q25 42 25 91zM899 476q-49 44 -115 44q-22 0 -43 -5
q-9 21 -22.5 40.5t-29.5 35.5q17 22 42 34t53 12q50 0 85.5 -35.5t35.5 -85.5q0 -21 -6 -40z" />
    <glyph glyph-name="uniE62A" unicode="&#xe62a;" 
d="M529 406l-51 -129l52 1l52 128h-53zM250 -29h53l103 230l-53 1zM610 -30h52l26 76l-52 1zM895 501q19 35 19 76q0 32 -12.5 61.5t-33.5 50.5t-50 33.5t-61 12.5q-77 0 -124 -61q-49 27 -103 27q-39 0 -75.5 -20t-57 -41t-38.5 -45q-10 2 -20.5 3.5t-20.5 1.5
q-39 0 -71 -11t-54.5 -31t-35 -48t-12.5 -62q0 -47 23 -89t63 -67t87 -25h55v51h-9h-46q-33 0 -61.5 18.5t-45 48.5t-16.5 63q0 52 37 76.5t86 24.5q11 0 22 -2t21 -6l20 -7l11 18q25 40 61.5 69t76.5 29q54 0 97.5 -32.5t58.5 -84.5l8 -28l27 12q20 9 42 9q21 0 39.5 -8
t32 -21.5t21.5 -32t8 -39.5q0 -42 -30 -75.5t-71 -33.5q-12 0 -32 1h-5h-44v-50h35h7q26 -1 39 -1q41 0 76 22t55.5 59t20.5 78q-1 41 -20 76zM858 543q-42 34 -95 34q-19 0 -38 -5q-3 9 -7.5 17t-9.5 15t-10.5 14t-11.5 14t-12 13q10 12 23 21t28.5 13.5t31.5 4.5
q29 0 53.5 -14t39 -39t14.5 -54q0 -8 -1.5 -16.5t-4.5 -17.5zM687 90l52 1l52 128h-53zM506 298l65 141l-46 22l-99 -214h124l-79 -168l46 -22l114 241h-125z" />
    <glyph glyph-name="uniE62B" unicode="&#xe62b;" 
d="M507 543h-8q-15 0 -30 -3t-28 -8t-25.5 -12t-23.5 -15t-21 -17h282q-64 53 -146 55zM266 52h453h12q5 0 10 -1h28q66 3 113 55h-743q26 -25 58.5 -39.5t68.5 -14.5zM78 215q6 -29 19 -54h820q6 13 9.5 26.5t4.5 27.5h-853zM906 324h-821q-10 -25 -12 -54h855
q-3 15 -9 28.5t-13 25.5zM763 404q-5 0 -10.5 -0.5t-10.5 -1.5t-10.5 -2t-10.5 -2q-8 18 -19 36h-382q-1 -2 -2.5 -4t-2.5 -3.5t-2 -2.5q-23 5 -47 5q-18 0 -34.5 -2t-31.5 -6t-29 -10.5t-26 -14t-22 -17.5h727q-20 12 -41.5 18.5t-45.5 6.5z" />
    <glyph glyph-name="uniE62C" unicode="&#xe62c;" 
d="M948 265l-418 394q-8 7 -18 7t-18 -7l-418 -394q-12 -12 -5.5 -28.5t23.5 -16.5h107v-285q0 -3 0.5 -6.5t2.5 -6.5t4 -5t5 -4t6.5 -2.5t6.5 -0.5h177q7 0 13 3t9.5 9t3.5 13v232h166v-232q0 -11 7.5 -18t18.5 -7h177q10 0 17.5 7t7.5 18v285h107q17 0 24 16q3 8 1 15.5
t-7 13.5zM784 369v240q0 10 -7.5 17.5t-18.5 7.5h-53q-11 0 -18.5 -7.5t-7.5 -17.5v-240h105z" />
    <glyph glyph-name="uniE62D" unicode="&#xe62d;" 
d="M752 289v-297q0 -23 -22 -23h-531q-4 0 -8 2t-7.5 5t-5.5 8t-2 10v494q0 7 3.5 12.5t9 9t10.5 3.5h317l108 96h-496q-19 0 -33.5 -14t-14.5 -33v-643q0 -19 14.5 -33t33.5 -14h664q20 0 38 14.5t18 32.5v465zM316 213q-12 -12 -12 -29v-80q0 -8 3.5 -15.5t8.5 -12.5
t12.5 -8.5t15.5 -3.5h80q17 0 28 12l372 371l-137 137zM932 612l-80 80q-12 12 -28 12q-8 0 -15.5 -3.5t-12.5 -8.5l-52 -52l136 -136l52 52q11 12 12 28q0 4 -1 8t-2.5 7.5t-3.5 6.5t-5 6z" />
    <glyph glyph-name="uniE62E" unicode="&#xe62e;" 
d="M529 642q-102 0 -188.5 -50t-136.5 -136.5t-50 -188.5t50 -188t136.5 -136t188.5 -50t188 50t136 136t50 188t-50 188.5t-136 136.5t-188 50z" />
    <glyph glyph-name="uniE62F" unicode="&#xe62f;" 
d="M772 445q0 7 -5 7h-113l-20 -53h85q2 0 3 -2t1 -4l155 -417q0 -2 -1 -4t-3 -2h-704q-5 0 -5 6l141 417q0 6 5 6h81l-32 53h-101q-2 0 -3.5 -2t-1.5 -5l-176 -519q0 -8 6 -8h875q6 0 6 8zM508 292q-88 76 -122 173q-10 30 -10.5 57t11.5 57q17 40 56 61.5t82 15.5
q47 -6 78.5 -37t37.5 -75q6 -47 -17 -99q-18 -41 -51 -84.5t-65 -68.5zM509 458q27 0 47 19.5t20 47.5q0 27 -20 47t-48 19q-27 0 -46.5 -19.5t-19.5 -47.5q0 -27 20 -46.5t47 -19.5zM277 157l-15 -54q3 -1 7.5 -2t21.5 -4t35 -3l1 56h-3q-4 0 -9.5 1t-11.5 2t-13 2t-13 2z
M378 155l11 -55l60 18l-21 52zM505 145l48 28l-25 50l-51 -29zM585 246l17 -53q3 1 8.5 2.5t19 4.5t22.5 3l-5 56h-1q-2 0 -5.5 -0.5t-7.5 -1t-10 -1.5t-11.5 -2.5t-12.5 -3t-14 -4.5zM712 255l-10 -54q20 -4 46 -17l26 50l-44 17q-10 3 -18 4zM837 129l-16 -10q-3 6 -11 15
t-14 15l-6 6l21 22zM204 202q55 -13 73 -24l-29 -47l-6 4l-14 11v29z" />
    <glyph glyph-name="uniE630" unicode="&#xe630;" 
d="M746 562q-6 0 -12.5 -0.5t-13 -1.5t-12.5 -3q-25 58 -78.5 93.5t-116.5 35.5q-39 0 -76 -20t-57 -41t-38 -45q-10 2 -20.5 3.5t-20.5 1.5q-26 0 -49 -5t-42 -14t-34.5 -22.5t-26 -30.5t-16.5 -37t-6 -43q0 -72 51.5 -126.5t122.5 -54.5h405q27 -1 40 -1q62 0 107 48
t45 111q0 42 -20.5 76.5t-55.5 55t-76 20.5zM746 301h-6h-5q-3 0 -5 0.5t-5 0.5h-5h-6h-5l-408 1q-33 0 -61.5 18.5t-45 48.5t-16.5 63q0 52 37 76.5t86 24.5q5 0 10.5 -0.5t11 -1.5t11 -2.5t10.5 -3.5l20 -7l10 18q26 40 62.5 69t76.5 29q21 0 41.5 -5.5t38.5 -16t33 -24.5
t26 -32.5t17 -38.5l8 -29l27 13q6 3 13 5t14.5 3t14.5 1q42 0 71.5 -29.5t29.5 -71.5t-30 -75.5t-71 -33.5zM205 5l51 -7l16 195l-50 7zM362 -112l51 -7l33 312l-50 7zM542 -112l50 -7l34 312l-50 7zM733 5l50 -7l17 195l-51 7z" />
    <glyph glyph-name="uniE631" unicode="&#xe631;" 
d="M684 442q-38 0 -71 -17t-56 -47q-50 30 -108 30q-39 0 -76 -20.5t-57.5 -41.5t-38.5 -46q-3 1 -6.5 2t-6.5 2h-8q-3 1 -6 1h-8h-7q-78 0 -126.5 -42t-48.5 -111q0 -72 51.5 -123.5t123.5 -51.5h410q25 -1 40 -1q63 0 108 45t45 108q0 38 -18 71q6 9 10 19t7 20.5t4.5 21
t1.5 21.5q0 66 -46.5 113t-112.5 47zM685 27q-13 0 -38 1l-412 1q-51 0 -87.5 36t-36.5 87q0 36 20 60t46.5 33t57.5 9q22 0 44 -8l19 -7l12 18q25 41 62 70t77 29q36 0 68.5 -15t56 -42t32.5 -61l9 -29l27 13q20 9 43 9q42 0 72 -30t30 -72t-30 -72t-72 -30zM785 245
q-43 37 -100 37h-8q-4 0 -8 -0.5t-7.5 -1t-7.5 -1t-7 -1.5q-17 39 -49 69q15 20 38 31.5t48 11.5q22 0 42 -8.5t34.5 -23t23 -34.5t8.5 -42q0 -19 -7 -37zM771 573l-51 8l-15 -99l50 -8zM591 468l-59 82l-42 -31l59 -81zM891 262l-10 -50l98 -20l10 50zM966 432l-28 43
l-84 -56l28 -43z" />
    <glyph glyph-name="uniE632" unicode="&#xe632;" 
d="M940 349h3h1v210h-187v-15h-16v15h-661v-211q6 1 12 1q25 0 43 -18t18 -43q0 -17 -8 -31t-22.5 -22t-30.5 -8h-6q-3 0 -6 1v-211h661v15h16v-15h187v210h-4q-25 0 -43 18t-18 43t18 43t43 18zM757 39h-16v16h16v-16zM757 62h-16v16h16v-16zM757 85h-16v16h16v-16z
M757 108h-16v16h16v-16zM757 131h-16v16h16v-16zM757 154h-16v15h16v-15zM757 177h-16v15h16v-15zM757 200h-16v16h16v-16zM757 223h-16v15h16v-15zM757 246h-16v15h16v-15zM757 269h-16v15h16v-15zM757 292h-16v15h16v-15zM757 315h-16v15h16v-15zM757 338h-16v15h16v-15z
M757 360l-16 1v15h16v-16zM757 384h-16v15h16v-15zM757 406h-16v16h16v-16zM757 429h-16v16h16v-16zM757 453h-16v15h16v-15zM757 475h-16v15h16v-15zM757 498h-16v16h16v-16zM757 521h-16v16h16v-16z" />
    <glyph glyph-name="uniE633" unicode="&#xe633;" 
d="M361 86h-109q-9 -1 -15 -1h-11q-4 0 -7 3.5t-4.5 4t-2.5 6t-1 6.5v9v9v364q0 39 40 39h518q1 1 4 1t9.5 -1t12 -3.5t9.5 -9t4 -16.5l1 -241q39 -26 78 -62v339q0 6 0.5 19.5t0.5 16.5t-1 11.5t-3 10.5t-5.5 6.5t-9 5t-13 2t-18.5 1.5h-655q-10 0 -17 -0.5t-12.5 -3t-9 -3
t-6 -5.5t-4 -7t-2 -10.5t-0.5 -11.5v-15v-17l1 -441q0 -5 -0.5 -16t-0.5 -14v-11q0 -8 1 -10.5t2.5 -8t3.5 -7.5t5 -5.5t8 -5t10.5 -4t12.5 -4.5h272q-45 34 -86 80zM578 341l-40 -26q-10 -7 -24 -6t-22 9l-73 78q-11 12 -23.5 10t-20.5 -16l-103 -170q-2 -5 -6.5 -12
t-7.5 -13l-8 -12q-3 -6 -5 -12t-2 -10q0 -13 9 -21.5t26 -8.5l59 -1q13 16 29 33.5t48 45t64 48.5t74 36.5t81 15.5h10h1h3l-24 31q-19 16 -45 1zM709 338q30 0 53 22t23 51q0 31 -23 54.5t-53 23.5t-51.5 -21.5t-21.5 -51.5q0 -31 21.5 -54.5t51.5 -23.5zM650 271h-7h-8
q-36 0 -73.5 -15.5t-66.5 -37t-53 -44t-36 -37.5l-13 -15q5 -7 13.5 -17t35 -36.5t53.5 -46.5t65.5 -36t74.5 -16q1 0 8 1l7 -1q36 0 74 15.5t66.5 37.5t52.5 45t36.5 38t12.5 16q-2 3 -6.5 8t-19 20.5t-30 30t-38 31.5t-45 29.5t-50 21t-53.5 8.5zM641.5 -7
q-50.5 0 -86 36.5t-35.5 88.5q0 26 10 49t26 40t38.5 27t47.5 10q50 0 85.5 -37t35.5 -89t-35.5 -88.5t-86 -36.5zM643 199q-10 0 -20 -3t-18.5 -8t-15.5 -12.5t-12 -16t-8 -19t-3 -20.5q0 -33 22.5 -56.5t54.5 -23.5t54.5 23.5t22.5 56.5q0 21 -10.5 39.5t-28 29
t-38.5 10.5z" />
    <glyph glyph-name="uniE634" unicode="&#xe634;" 
d="M512 630q-93 0 -172 -45.5t-124.5 -124.5t-45.5 -172t45.5 -172t124.5 -124.5t172 -45.5t172 45.5t124.5 124.5t45.5 172q0 56 -17 108t-49 94t-74 74t-94 49t-108 17zM653 461q9 0 18 -6.5t15 -18.5t9.5 -28t3.5 -33q0 -36 -13.5 -61.5t-32.5 -25.5t-33 25.5t-14 61.5
t14 61t33 25zM382 461q19 0 32.5 -25t13.5 -61t-13.5 -61.5t-33 -25.5t-33 25.5t-13.5 61.5q0 17 3.5 33t10 28t15 18.5t18.5 6.5zM512 81q-57 0 -106.5 25t-82.5 69h378q-33 -44 -82.5 -69t-106.5 -25z" />
    <glyph glyph-name="uniE635" unicode="&#xe635;" 
d="M316 145h33v114h-33v-114zM316 272h33v29h-33v-29zM262 259h-70v-24h61q15 -4 15 -13v-8h-56q-2 -1 -6 -2t-12 -8t-11 -19q0 -10 0.5 -13.5t1.5 -6.5q6 -17 26 -21h89v82q-1 3 -2.5 8t-11 14t-24.5 11zM268 167h-45q-4 2 -6 4t-2 3q-2 5 0 9q3 6 9 8h44v-24zM152 222
q10 5 14.5 14.5t4.5 17.5v7q-1 12 -7.5 20.5t-13 12.5t-16 6t-12.5 2h-6h-80v-159h91q23 0 35.5 10.5t13.5 20.5v11q0 12 -5.5 21.5t-12.5 12.5zM70 271h53q11 0 15 -9q2 -9 -2 -16q-3 -7 -13 -8h-53v33zM138 180q-4 -6 -13 -7v-1h-55v35h55l1 -1l10 -5l4 -6q3 -9 -2 -15z
M800 167l-12 38h4q10 0 12 5q2 4 3 9l5 16h-17l-2 -9l-3 -4q-1 -1 -3 -1h-3l-4 12h-20l24 -79q0 -1 1 -2.5t1 -2.5q2 -3 4 -4q1 -1 2 -1t2 -1h8h11v17h-6q-5 0 -7 7zM749 267q1 1 2 2.5t2 2.5l1 3h58v17h-52l2 8h-19l-4 -11q-3 -10 -7 -10h-4l1 -15h9q8 0 11 3zM701 299h-20
l-3 -8h-22v-17h9v-108q0 -3 -1 -5v-1h-2h-4v-17h11q6 0 9.5 2t5.5 6.5t2 10.5v82h16v-78v-2v-3q-1 -1 -3 -1h-6v-17h13q15 0 16 8t1 14v97h-37v12h40v17h-23zM756 162q-1 2 -1 6v75h38q15 0 16.5 5.5t1.5 8.5v10h-17v-5q0 -2 -1 -2h-4h-55v-99q0 -4 1 -7t3 -5q1 -1 2.5 -2
t4.5 -2q4 -2 9 -2h18v18h-12zM978 199v30l10 16v16h-56v-19h32l-6 -11h-18v-15h17v-17h-26v-19h26v-12q0 -2 -0.5 -3.5t-2.5 -1.5q-2 -1 -7 -1h-9v-19h22q8 0 12 4t5 7.5t1 7.5v18h10v19h-10zM846 263q1 -1 3.5 -1.5t5.5 -0.5h12v18h-3h-4q-1 0 -1 0.5t-1 2t-1 3.5l-5 14
h-21l11 -30q1 -4 4 -6zM927 267q11 0 15 2q1 2 2.5 3t3.5 2h39v17h-28l5 10h-21l-5 -9q-1 -2 -2 -3l-2 -2h-6h-12l-4 13h-21l-3 -13h-16v-20h9l-3 -101q0 -2 -0.5 -3t-0.5 -2q-1 -1 -4 -1h-5v-18h8q1 0 2 0.5t2 0.5h4q5 2 7.5 5t3.5 7q0 2 0.5 4t0.5 5l1 68h11v-61
q0 -3 -0.5 -5t-0.5 -3q-1 -1 -3 -1h-3v-19h6q10 0 13 2q1 1 2.5 3t2.5 4q1 5 1 12v89h-28l1 14h28zM838 168q-1 -4 -5 -4h-3v-20h10q13 0 15 10l13 53h-20zM842 223q2 -2 4 -3q3 -2 9 -2h12v18h-5q-4 0 -5 1q-1 0 -1.5 1t-0.5 2l-5 12h-22l11 -25q2 -3 3 -4zM403 280
q15 3 22 15.5t6 23t-1 16.5q-1 11 -12.5 23t-25.5 11q-12 -1 -19.5 -11t-9.5 -20l-2 -10q-2 -9 1.5 -21.5t14.5 -21t26 -5.5zM463.5 346q13.5 0 23.5 13.5t10 32.5q0 13 -4.5 23.5t-12 17t-16.5 6.5q-14 0 -23.5 -13.5t-9.5 -33t9.5 -33t23 -13.5zM542 343q16 -3 28 11
t15 31q2 14 -7.5 28.5t-22.5 17.5q-12 3 -25.5 -12t-15.5 -29q-1 -12 1 -21.5t8.5 -17t18.5 -8.5zM638 310q0 11 -9 24t-28 13q-33 0 -33 -45q0 -12 1.5 -20t10.5 -15.5t26 -6.5q6 0 10.5 1t8 4t6 5.5t3.5 7t2 7.5t1.5 7.5t0.5 7.5v6v4zM438 212q-4 -10 -2 -16q1 -4 3 -7
t4.5 -4.5t4.5 -2t3 -1.5h1h17v42h-18q-10 -3 -13 -11zM601 227q-37 29 -59 61q-14 21 -32.5 26t-32 -2.5t-21.5 -19.5q-6 -11 -15 -20.5t-16.5 -15.5t-7.5 -7q-1 0 -6 -4t-10.5 -9t-11.5 -14t-8 -18.5t0 -22.5q4 -18 14.5 -28.5t19.5 -11.5l8 -1q24 -2 52 4q15 3 26.5 2.5
t18.5 -1.5l8 -2q2 -1 6.5 -2t17 -2.5t23 -0.5t21 7t15.5 18q17 41 -10 64zM489 164h-43q-20 4 -26 19l-2 5q-1 1 -2.5 9.5t0.5 14.5t4.5 10t5.5 7t6 5t5.5 3t4.5 2t4 1h1h23v28h19v-104zM568 165h-49q-4 1 -7 2.5t-5 3t-3.5 3.5t-2.5 3.5t-1 3v1.5l-1 1v54l20 1v-49
q1 -2 3 -3.5t3 -2t2 -0.5h20v54h21v-72z" />
    <glyph glyph-name="uniE636" unicode="&#xe636;" 
d="M748 659h-99v-137h99v137zM807 581h-20v-59q0 -8 -3 -15.5t-8.5 -13t-12.5 -8.5t-15 -3h-99q-5 0 -10 1.5t-9.5 4t-8 6t-6 8t-4 9.5t-1.5 11v59h-197v-59q0 -8 -3 -15.5t-8 -13t-12.5 -8.5t-15.5 -3h-98q-17 0 -28.5 11.5t-11.5 28.5v59h-19q-33 0 -56 -23t-23 -56v-492
q0 -33 23 -56t56 -23h590q33 0 56 23t23 56v492q0 33 -23.5 56t-55.5 23zM807 30h-590v354h590v-354zM374 659h-98v-137h98v137z" />
    <glyph glyph-name="uniE637" unicode="&#xe637;" 
d="M598 436.5q-13 10.5 -34 15.5t-50 5h-54v-170h43q64 0 93 20.5t29 66.5q0 21 -7 36.5t-20 26zM512 662q-44 0 -86 -9.5t-79 -28t-69.5 -44t-58 -58t-44 -69.5t-28 -79t-9.5 -86q0 -102 50 -188t136 -136t188 -50q76 0 145.5 29.5t119.5 79.5t80 119.5t30 145.5
q0 102 -50.5 188t-136.5 136t-188 50zM636 276q-46 -35 -127 -36h-49v-167h-55v430h114q162 0 162 -126q0 -66 -45 -101z" />
    <glyph glyph-name="uniE638" unicode="&#xe638;" 
d="M836 289v-35v-35v-33v-36v-34q0 -10 -2 -15.5t-7.5 -8t-16.5 -2.5q-44 0 -95 1h-6q-3 0 -5 0.5t-4 1.5t-3.5 2.5t-2 3t-0.5 3.5l-2 6v6v180v169q0 23 22 23q15 -1 49.5 -0.5t48.5 -0.5q10 0 15 -2t7 -7t2 -15v-172zM187 290v85v85q0 15 5 20t20 6h48h48q23 0 23 -22v-351
q0 -23 -23 -23q-16 1 -48 1h-50q-7 0 -11 1t-6.5 4t-4 7t-1.5 11v176zM79 289v109q0 10 2.5 13.5t10.5 3.5h24h24q6 0 9 -3.5t3 -10.5v-225q0 -8 -3 -11.5t-9 -3.5q-6 1 -16 1t-16.5 -0.5t-16.5 0.5q-7 0 -9.5 3t-2.5 12v112zM872 289v109q0 10 2.5 13.5t9.5 3.5h24h25
q12 0 12 -14q-1 -113 0 -225q0 -5 -1.5 -8.5t-4 -5t-6.5 -1.5q-8 1 -25 1h-24q-5 0 -7.5 1t-3.5 4.5t-1 9.5v112zM510 234q-83 0 -124 -1q-4 0 -7 0.5t-5.5 2t-3.5 3.5t-1.5 5t-0.5 8v37v35q-1 17 16 17q70 1 132.5 1t121.5 1q17 0 17 -17v-36v-38q0 -7 -1.5 -10.5t-5.5 -5
t-10 -1.5z" />
    <glyph glyph-name="uniE639" unicode="&#xe639;" 
d="M390 431q0 51 35 86.5t87 35.5q20 0 39 -6t34 -17.5t26 -26t17 -33.5t6 -39q0 -52 -35 -87.5t-87 -35.5q-13 0 -25 2.5t-23 7t-21 11t-18 15t-14.5 18t-11 20.5t-7 23.5t-2.5 25.5zM512 227q-52 0 -96.5 -14t-70.5 -33.5t-44.5 -40t-25.5 -33t-7 -14.5v-69h488v69
q-2 6 -7 15t-25 32t-45 41t-70 32.5t-97 14.5zM675 451q0 -42 30 -72t72 -30t72 30t30 72t-30 72t-72 30q-12 0 -23.5 -3t-21.5 -8t-19 -12t-16 -15.5t-12 -18.5t-7.5 -21.5t-2.5 -23.5zM777 268q-15 0 -28.5 -1.5t-25 -4.5t-22.5 -7t-20.5 -9t-17.5 -11q22 -11 42 -24.5
t33.5 -27t24.5 -27t17 -24.5t9.5 -18t3.5 -9v-4h167v53q0 7 -15 31.5t-61 53.5t-107 29zM675 451q0 -42 30 -72t72 -30t72 30t30 72t-30 72t-72 30q-12 0 -23.5 -3t-21.5 -8t-19 -12t-16 -15.5t-12 -18.5t-7.5 -21.5t-2.5 -23.5zM777 268q-15 0 -28.5 -1.5t-25 -4.5
t-22.5 -7t-20.5 -9t-17.5 -11q22 -11 42 -24.5t33.5 -27t24.5 -27t17 -24.5t9.5 -18t3.5 -9v-4h167v53q0 7 -15 31.5t-61 53.5t-107 29zM145 451q0 -42 30 -72t72 -30q21 0 40 8t32.5 21.5t21.5 32.5t8 40q0 16 -5 32t-14.5 28.5t-22 21.5t-28 14.5t-32 5.5t-32 -5.5
t-28 -14.5t-22 -21.5t-15 -28.5t-5.5 -32zM247 268q15 0 28.5 -1.5t25 -4.5t22.5 -7t20.5 -9t17.5 -11q-42 -20 -74 -51.5t-44 -52t-12 -26.5v-4h-167v53q0 1 3 7t9.5 16.5t16 22.5t24.5 24t33 21.5t43.5 16t53.5 6.5z" />
    <glyph glyph-name="uniE63A" unicode="&#xe63a;" 
d="M656 398q0 46 32.5 78.5t78.5 32.5q15 0 29.5 -4t27 -11t22.5 -17.5t17.5 -22.5t11.5 -26.5t4 -29.5q0 -23 -9 -43.5t-24 -35.5t-35.5 -23.5t-43.5 -8.5q-46 0 -78.5 32.5t-32.5 78.5zM712 176q-37 0 -83 -12t-85.5 -25.5t-99.5 -25t-121 -11.5q-38 0 -73 4t-59.5 10
t-46.5 14.5t-35 15.5t-24 15t-14 10.5t-4 4.5q2 -3 5 -8.5t15.5 -21t27 -29.5t39 -31t51.5 -29.5t65 -21t79 -8.5q49 0 98 8t88 18.5t75.5 21.5t74.5 18.5t71 7.5q42 0 78 -7.5t57.5 -18.5t37 -21.5t21.5 -18.5l6 -8q-1 2 -2.5 5.5t-8.5 13.5t-15 20t-21 23t-26.5 24.5
t-33 23.5t-39.5 20t-45.5 13.5t-52.5 5.5zM228 365l192 96l7 -12l40 -110q-1 0 -54.5 -31.5t-123 -72.5t-81.5 -48q44 -11 111 -11q64 0 122.5 11.5t117.5 30.5t86 24l-178 286l-1 -1v1q-8 13 -22 17t-27 -3l-222 -111q-9 -4 -14.5 -12.5t-6 -18t3.5 -19.5q12 -23 39 -20
q6 2 11 4z" />
    <glyph glyph-name="uniE63B" unicode="&#xe63b;" 
d="M926 -39v-1q-1 -3 -2 -4q-9 -30 -39 -30h-163h-2v128h154v27h-154v51h154v26h-154v52h154v26h-154v52h154v26h-154v51h154v27h-154v51h154v27h-154v51h39h120q17 0 29.5 -8.5t16.5 -24.5l1 -2v-525zM98 408q7 22 19 28.5t21 6.5h163h1h2v-51h-51v-52h51v-51h-51v-53h51
v-51h-51v-52h51v-51h-51v-53h51v-103h-45h-108q-24 0 -34 6.5t-19 28.5v447zM201 236v52h-51v-52h51zM150 392v-52h51v52h-51zM150 133h51v51h-51v-51zM201 29v52h-51v-52h51zM693 -74h-361q-1 5 -1 6v180v182v98v115v98q0 21 12 33t33 12h86h97h86q48 0 48 -47v-644v-5v-6
v-5v-5v-6v-6zM641 3v78h-51v-78h51zM486 81v-78h51v78h-51zM383 81v-78h51v78h-51zM590 133h51v77h-51v-77zM486 133h52v77h-52v-77zM383 210v-77h51v77h-51zM641 339h-51v-77h51v77zM486 340v-78h51v78h-51zM383 340v-78h51v78h-51zM590 392h51v77h-51v-77zM538 392v77h-51
v-77h51zM383 392h51v77h-51v-77zM641 598h-51v-77h51v77zM486 521h52v78h-52v-78zM383 599v-78h51v78h-51z" />
    <glyph glyph-name="uniE63C" unicode="&#xe63c;" 
d="M523 -148h-41q-3 0 -6 0.5t-6 1.5l-4 4q-3 1 -5 3t-3.5 4.5t-2.5 5t-1.5 5.5t-0.5 6v28q0 7 5 12t12 5h66q7 0 12 -5t5 -12v-28q0 -12 -8.5 -21t-21.5 -9zM773 594q-28 39 -66.5 66t-70.5 39t-66 18t-47.5 6.5t-19.5 0.5h-2h-4q-10 0 -23 -1.5t-37 -5t-49 -12.5
t-52.5 -22t-54.5 -36t-48 -52q-20 -27 -30.5 -59t-12 -75.5t18.5 -100.5t62 -120q19 -29 78.5 -108.5t79.5 -104.5q5 -7 16 -21t19 -24l8 -11q1 -1 2.5 -3t5.5 -5.5t10 -5.5t13 -2q9 0 16.5 4t10 7t4.5 5q30 40 43 56q116 149 158 213q33 51 52.5 98.5t24.5 84t0.5 70.5
t-14.5 57.5t-25 43.5zM330 447.5q0 19.5 13.5 33.5t33.5 14t34 -14t14 -33.5t-14 -33.5t-34 -14t-33.5 14t-13.5 33.5zM626 265q-53 -46 -123 -46q-23 0 -44.5 5.5t-41.5 15.5t-38 25q-8 7 -8.5 17.5t6.5 18.5t17.5 9t18.5 -6q25 -21 57.5 -29t65 0t57.5 29q5 5 11.5 6
t13 -1t11 -7.5t6 -12t-0.5 -13t-8 -11.5zM629 400q-20 0 -34 14t-14 34q0 6 2 12t5 11.5t7.5 10t9.5 7.5t11 4.5t13 1.5q9 0 18 -3.5t15.5 -10t10 -15.5t3.5 -18q0 -32 -29 -44q-9 -4 -18 -4z" />
    <glyph glyph-name="uniE63D" unicode="&#xe63d;" 
d="M452 78h119v-92h-119v92zM885 601h-747q-11 0 -18.5 -7.5t-7.5 -18.5v-496q0 -6 3.5 -12t9.5 -9.5t13 -3.5h748q10 0 17.5 7.5t7.5 17.5v496q0 5 -2 10t-5.5 8.5t-8 5.5t-10.5 2zM511.5 106q-11.5 0 -19.5 8t-8 19t8 19t20 8q5 0 10 -2t8.5 -6t6 -9t2.5 -10q0 -11 -8 -19
t-19.5 -8zM841 200h-658v334h658v-334zM795 -73v34q0 10 -7.5 17.5t-18.5 7.5h-515q-11 0 -18.5 -7.5t-7.5 -17.5v-34h567z" />
    <glyph glyph-name="uniE63E" unicode="&#xe63e;" 
d="M683 408q77 -61 108.5 -144t5.5 -153q-5 -14 -13 -29t-18.5 -29t-23 -27t-26 -24.5t-28 -21.5t-29.5 -18t-30 -13.5t-29.5 -8t-28.5 -2.5q21 47 22 50q30 87 -28 141q-73 69 -60 153q-54 -34 -84.5 -70.5t-37.5 -87.5q-5 -34 5 -69t22 -56t37 -59q-148 27 -204 131
q-64 118 16 216q31 39 97 96q67 58 96.5 117.5t7.5 137.5q57 -5 103 -46.5t67.5 -106.5t10.5 -134q5 7 9 13l10 12q4 6 7.5 10.5t8.5 11t7 10.5z" />
    <glyph glyph-name="uniE63F" unicode="&#xe63f;" 
d="M601 142zM564 142q0 10 5 18.5t13.5 13.5t18.5 5t18.5 -5t13.5 -13.5t5 -18.5q0 -15 -11 -26t-26 -11q-5 0 -10 1t-9 3.5t-7.5 6t-6 7.5t-3.5 9t-1 10zM863 673h-261q-10 -1 -18 -8l-468 -468q-8 -8 -8 -18.5t8 -18.5l261 -261q7 -7 18 -7t18 7l469 469q3 3 5 8t2 10v261
q0 11 -7.5 18.5t-18.5 7.5zM587 239h-91l41 -41l-36 -37l-47 48l-21 -22l47 -47l-36 -36l-47 47l-44 -43l-36 36l44 44l-48 47l37 36l47 -47l21 21l-47 47l36 36l41 -41v90h51v-87h88v-51zM774 423q-28 -27 -67 -27t-67 27.5t-28 66.5t28 67q11 11 24.5 18t28 9t29 0t28 -9
t24.5 -18q9 -9 15 -20t9 -22.5t3 -24t-3 -24t-9 -23t-15 -20.5z" />
    <glyph glyph-name="uniE640" unicode="&#xe640;" 
d="M621 70.5q0 -29.5 -14.5 -54.5t-39.5 -39.5t-55 -14.5q-45 0 -77 32t-32 77t32 76.5t77 31.5q30 0 55 -14.5t39.5 -39.5t14.5 -54.5zM262 280l83 -70q41 49 104 66.5t126 -0.5t104 -66l83 69q-46 56 -111.5 87t-138 31t-138 -31t-112.5 -86zM110 435l80 -73
q62 68 146 105.5t176 37.5t176 -37t146 -105l80 73q-77 85 -182 131.5t-220 46.5t-220 -47t-182 -132z" />
    <glyph glyph-name="uniE641" unicode="&#xe641;" 
d="M918 583q-35 47 -87 100q-8 7 -15 14t-14.5 14t-15 13.5t-14.5 12.5l-14 12q-7 6 -14 11t-13 10q-34 25 -55.5 33.5t-35.5 8.5h-496q-33 0 -56.5 -23.5t-23.5 -56.5v-864q0 -33 23.5 -56.5t56.5 -23.5h736q33 0 56.5 23.5t23.5 56.5v624q0 33 -42 91zM785 637
q43 -42 73 -81h-154v154q39 -30 81 -73zM896 -132q0 -7 -4.5 -11.5t-11.5 -4.5h-736q-6 0 -11 4.5t-5 11.5v864q0 6 5 11t11 5h496v-224q0 -13 9.5 -22.5t22.5 -9.5h224v-624zM736 -20h-448q-13 0 -22.5 9.5t-9.5 22.5t9.5 22.5t22.5 9.5h448q13 0 22.5 -9.5t9.5 -22.5
t-9.5 -22.5t-22.5 -9.5zM736 108h-448q-13 0 -22.5 9.5t-9.5 22.5t9.5 22.5t22.5 9.5h448q13 0 22.5 -9.5t9.5 -22.5t-9.5 -22.5t-22.5 -9.5zM736 236h-448q-13 0 -22.5 9.5t-9.5 22.5t9.5 22.5t22.5 9.5h448q13 0 22.5 -9.5t9.5 -22.5t-9.5 -22.5t-22.5 -9.5z" />
    <glyph glyph-name="uniE642" unicode="&#xe642;" 
d="M512 -113q-113 0 -209 55.5t-151.5 151.5t-55.5 208.5t55.5 208.5t151.5 152t209 56t208.5 -56t151.5 -152t56 -208q0 -161 -108 -280q-106 -116 -260 -134q-24 -2 -48 -2zM512 655q-95 0 -176.5 -47.5t-128.5 -128.5t-47 -176.5t47 -176.5t128.5 -128t176.5 -47
t176.5 47t128.5 128t47 177q0 141 -98 243q-97 101 -236 108q-10 1 -18 1zM627 404l-158 -159l-76 76l-41 -42l75 -75l45 -46l42 42l158 158z" />
    <glyph glyph-name="uniE643" unicode="&#xe643;" 
d="M775 330l-167 -98l104 -116l-362 -207l16 -28l396 226l-104 117l133 78zM351 -28l-17 18q-9 8 -39.5 41.5t-53 62t-46.5 66t-34 65.5q-11 29 -11 60q0 77 56 131t134.5 54t134 -54t55.5 -131q0 -31 -10 -60q-22 -60 -101 -155l-30 -35l24 -21l31 36q83 99 106 164
q3 9 5 18t3.5 17.5t2.5 17.5t1 18q0 90 -65 153.5t-157 63.5t-157 -63.5t-65 -153.5q0 -36 12 -70q13 -38 44.5 -85t68.5 -88.5t56 -62t30 -30.5l11 -11l23 22zM340 371q-39 0 -67 -27.5t-28 -67t28 -67.5t67 -28t67 28t28 67.5t-28 67t-67 27.5zM340 213q-26 0 -44.5 18.5
t-18.5 44.5t18.5 44.5t44.5 18.5t44.5 -18.5t18.5 -44.5t-18.5 -44.5t-44.5 -18.5zM762 719q-39 0 -72.5 -18.5t-52.5 -51t-19 -70.5q0 -12 2 -23.5t6 -22.5q11 -31 43.5 -74t51 -62.5t30.5 -31.5l11 -11l23 23l-12 11v1q-96 96 -117 155q-3 8 -4.5 17t-1.5 18
q0 18 5.5 34.5t16 29.5t24.5 23t31 15.5t35 5.5q46 0 79 -31.5t33 -76.5q0 -19 -6 -36q-13 -36 -61 -94l-23 -26l24 -21l23 27q53 62 67 104q8 22 8 46q0 28 -11.5 54t-31 45t-46 30t-55.5 11zM827 573q0 27 -19 46t-46 19t-46 -19t-19 -46q0 -17 8.5 -32t23.5 -24t33 -9
q11 0 21 3.5t18 9.5t14 14t9 18t3 20zM762 540q-14 0 -23.5 9.5t-9.5 23.5t9.5 23.5t23.5 9.5q9 0 16.5 -4t12 -12t4.5 -17q0 -14 -9.5 -23.5t-23.5 -9.5z" />
    <glyph glyph-name="uniE644" unicode="&#xe644;" 
d="M737 70l-75 74l34 34l-80 80l-46 -22l-133 133l22 46l-80 80l-38 -38q-19 -18 -25.5 -43t0 -50t25.5 -43l181 -181q13 -14 30.5 -21.5t37.5 -7.5q6 0 12 1t12 2.5t11.5 4t10.5 5.5l76 -75q-93 -79 -211 -79q-90 0 -166 44.5t-120 120.5t-44 165.5t44 165.5t120 120
t165.5 44t165.5 -44t120.5 -120t44.5 -166q0 -50 -14.5 -96t-41.5 -86l24 -23q64 93 64 205q0 98 -48.5 181.5t-132 132t-181.5 48.5t-181.5 -48.5t-132 -132t-48.5 -181.5q0 -73 28.5 -140t77 -115.5t115.5 -77.5t141 -29q50 0 97 13.5t87.5 37.5t73.5 58zM635 162
q-18 -18 -45.5 -18t-45.5 18l-181 181q-9 10 -14 22t-5 24t5 24t14 21l16 16l41 -41l-22 -46l166 -166l45 22l42 -41z" />
    <glyph glyph-name="uniE645" unicode="&#xe645;" horiz-adv-x="1834" 
d="M1310 -61q-73 0 -139.5 28.5t-115 77t-77 115.5t-28.5 140q0 86 38 162t106 127t153 66l5 -31q-117 -21 -193.5 -112.5t-76.5 -211.5q0 -89 44 -165t119.5 -120t164.5 -44q132 0 227.5 91t101.5 222h-345v377h16q134 0 234.5 -85.5t121.5 -217.5l-31 -5
q-19 116 -105.5 193t-203.5 82v-312h345v-16q0 -144 -100 -249q-98 -103 -240 -111q-11 -1 -21 -1zM16 491z" />
    <glyph glyph-name="uniE646" unicode="&#xe646;" 
d="M424 -102h180v-32h-180v32zM516 -66l-12 12q-17 17 -43.5 45t-80.5 89.5t-99 129t-64 120.5q-6 16 -9.5 32.5t-5.5 33.5t-2 34q0 126 91.5 215t220.5 89q35 0 68.5 -7.5t64.5 -21.5l-13 -29q-29 13 -59 19.5t-61 6.5q-76 0 -140.5 -36.5t-102 -99t-37.5 -136.5
q0 -46 15 -89q16 -44 52.5 -101t82 -111t76 -87.5t57.5 -60.5l40 45q3 3 12.5 14.5t24.5 29.5l21 24l18 22q110 132 143 218l3 7q15 43 15 89q0 21 -4 44l32 5q2 -12 3 -24.5t1 -24.5q0 -40 -10 -79l-7 -21q-32 -92 -151 -235l-18 -21q-6 -7 -21 -25t-25 -29.5t-13 -14.5z
M504 326l-131 134l23 23l109 -111l272 270l22 -23z" />
    <glyph glyph-name="uniE647" unicode="&#xe647;" 
d="M488 514zM386 -52h239v-81h-239v81zM790 452q0 76 -39 141t-105 102.5t-144 37.5q-120 0 -204.5 -82.5t-84.5 -198.5q0 -24 4 -47t12 -45q17 -48 60 -111.5t94 -121t77 -85t41 -42.5l27 27q93 101 99 109l8 9q54 65 89 119t50 96l9 25h-2q4 17 6.5 33.5t2.5 33.5z
M503 340q-51 0 -87 36t-36 87t36 87t87 36t87 -36t36 -87t-36 -87t-87 -36z" />
    <glyph glyph-name="uniE648" unicode="&#xe648;" 
d="M488 514zM501 -126l-6 3q-9 4 -22 10.5t-45.5 24.5t-62 37.5t-64.5 49t-60 58.5t-42.5 66t-17.5 73v436h165l156 95l155 -95h148v-32h-157l-146 89l-147 -89h-142v-404q0 -34 18 -69t48 -64.5t61.5 -54.5t68 -47t56 -32.5t36.5 -18.5q14 6 30.5 14.5t46 26t56 36t56 43.5
t51 50.5t35.5 56t14 59.5v219h32v-219q0 -28 -11 -57t-27.5 -53.5t-40.5 -49t-48 -44t-51.5 -38t-48.5 -31t-42.5 -24t-30.5 -15.5t-14 -7zM505 192l-171 171l23 22l148 -148l289 292l23 -23z" />
    <glyph glyph-name="uniE649" unicode="&#xe649;" 
d="M488 514zM505 260l301 302v54h-154l-150 92l-151 -92h-154v-420q0 -34 17 -69.5t44 -64.5t59 -56t64.5 -47.5t59.5 -35.5t44 -23l16 -8q7 3 18 8t42.5 22.5t60 36.5t63.5 47t60.5 56.5t43 64t17.5 69.5v275l-301 -302l-182 183l45 45z" />
    <glyph glyph-name="uniE64A" unicode="&#xe64a;" 
d="M624 310h98v-98h-98v98zM461 310h99v-98h-99v98zM298 310h99v-98h-99v98zM461 165h99v-99h-99v99zM298 165h99v-99h-99v99zM801 581h-31h-8h-33v82h-99v-164q-6 0 -11.5 3.5t-8.5 8.5t-3 12v58h-169v82h-99v-164q-6 0 -11.5 3.5t-8.5 8.5t-3 12v58h-25h-15h-57
q-26 0 -44 -18.5t-18 -43.5v-39v-45v-442q3 -24 20.5 -40t41.5 -16h583q23 0 40.5 16t20.5 40l1 6v436v24v60q-1 17 -9 31t-22.5 22.5t-31.5 8.5zM797 6h-574v364h574v-364z" />
    <glyph glyph-name="uniE64B" unicode="&#xe64b;" 
d="M930 -138l-279 283l22 21q88 89 88 214.5t-88 214.5q-89 89 -214.5 89t-214.5 -89q-88 -89 -88 -214.5t88 -214.5q36 -35 81.5 -57t93.5 -28.5t97.5 3t93.5 34.5l32 -55q-108 -62 -231.5 -46t-211.5 104q-70 71 -95 165.5t0 189t95 164.5q52 52 119 80t140.5 28
t140.5 -28t119 -80q66 -67 92 -156t7.5 -179t-78.5 -161l15 -17l221 -220z" />
    <glyph glyph-name="uniE64C" unicode="&#xe64c;" 
d="M859 -36h-694q-6 0 -11 5t-5 11v624q0 5 2.5 8.5t6 5.5t7.5 2h375v-32h-359v-592h662v359h32v-375q0 -6 -5 -11t-11 -5zM485 151q-7 0 -11 5l-109 108q-4 5 -4 11.5t4 11.5l352 351q4 5 11 5t11 -5l123 -123l-22 -22l-112 111l-329 -329l86 -85l266 265l22 -22l-277 -277
q-1 -2 -3 -3t-4 -1.5t-4 -0.5zM325 99q-7 0 -12 5q-7 7 -3 16l51 160q2 4 5 7t7 4q9 2 15 -4l108 -109q3 -3 4 -7t0 -8q-2 -8 -10 -11l-160 -52q-2 0 -3 -0.5t-2 -0.5zM384 246l-34 -106l105 34z" />
    <glyph glyph-name="uniE64D" unicode="&#xe64d;" 
d="M775 330l-167 -98l104 -116l-362 -207l16 -28l396 226l-104 117l133 78zM351 -28l-17 18q-9 8 -39.5 41.5t-53 62t-46.5 66t-34 65.5q-11 29 -11 60q0 77 56 131t134.5 54t134 -54t55.5 -131q0 -31 -10 -60q-22 -60 -101 -155l-30 -35l24 -21l31 36q83 99 106 164
q3 9 5 18t3.5 17.5t2.5 17.5t1 18q0 90 -65 153.5t-157 63.5t-157 -63.5t-65 -153.5q0 -36 12 -70q13 -38 44.5 -85t68.5 -88.5t56 -62t30 -30.5l11 -11l23 22zM340 371q-39 0 -67 -27.5t-28 -67t28 -67.5t67 -28t67 28t28 67.5t-28 67t-67 27.5zM340 213q-26 0 -44.5 18.5
t-18.5 44.5t18.5 44.5t44.5 18.5t44.5 -18.5t18.5 -44.5t-18.5 -44.5t-44.5 -18.5zM762 719q-39 0 -72.5 -18.5t-52.5 -51t-19 -70.5q0 -12 2 -23.5t6 -22.5q11 -31 43.5 -74t51 -62.5t30.5 -31.5l11 -11l23 23l-12 11v1q-96 96 -117 155q-3 8 -4.5 17t-1.5 18
q0 18 5.5 34.5t16 29.5t24.5 23t31 15.5t35 5.5q46 0 79 -31.5t33 -76.5q0 -19 -6 -36q-13 -36 -61 -94l-23 -26l24 -21l23 27q53 62 67 104q8 22 8 46q0 28 -11.5 54t-31 45t-46 30t-55.5 11zM827 573q0 27 -19 46t-46 19t-46 -19t-19 -46q0 -17 8.5 -32t23.5 -24t33 -9
q11 0 21 3.5t18 9.5t14 14t9 18t3 20zM762 540q-14 0 -23.5 9.5t-9.5 23.5t9.5 23.5t23.5 9.5q9 0 16.5 -4t12 -12t4.5 -17q0 -14 -9.5 -23.5t-23.5 -9.5z" />
    <glyph glyph-name="uniE64E" unicode="&#xe64e;" 
d="M814 507l-310 -310l-158 158l45 45l113 -113l271 271q-52 55 -122 86.5t-149 31.5q-100 0 -185.5 -49.5t-135 -134.5t-49.5 -186q0 -60 18.5 -116.5t53 -102t80 -80t102 -53t116.5 -18.5q75 0 143.5 29.5t118 79t79 118t29.5 143.5q0 109 -60 201z" />
    <glyph glyph-name="uniE64F" unicode="&#xe64f;" 
d="M512 -102q-109 0 -201.5 54t-146.5 146.5t-54 201.5q0 65 20.5 126.5t57.5 111t86.5 86.5t111 57.5t126.5 20.5q93 0 176 -40.5t141 -114.5l17 -22l-24 -24l-310 -310l-158 158l45 45l113 -113l248 248q-48 52 -112.5 80.5t-135.5 28.5q-31 0 -61 -5.5t-57 -16t-52.5 -25
t-47.5 -33t-40.5 -40.5t-33 -47.5t-25 -52.5t-16 -57t-5.5 -61q0 -92 45.5 -169.5t123 -123t169.5 -45.5t169.5 45.5t123 123t45.5 169.5q0 31 -5.5 61.5t-16.5 59.5l59 23q27 -69 27 -144q0 -109 -54 -201.5t-146.5 -146.5t-201.5 -54z" />
    <glyph glyph-name="uniE650" unicode="&#xe650;" horiz-adv-x="1161" 
d="M16 -50zM638 666q-100 0 -184 -49t-133.5 -133.5t-49.5 -183.5t49.5 -183.5t133.5 -133.5t184 -49h16v32v75v120h160v32h-160v56h160v32h-153l171 170l-23 23l-171 -172l-172 172l-23 -23l171 -170h-153v-32h160v-56h-160v-32h160v-193q-132 6 -225 102t-93 230
q0 68 26.5 130t71.5 106.5t107 71t129.5 26.5t129.5 -26.5t107 -71t71.5 -106.5t26.5 -130q0 -123 -81.5 -217.5t-202.5 -112.5l5 -32q135 21 223 123t88 239q0 74 -29.5 142t-78.5 117t-116.5 78t-141.5 29z" />
    <glyph glyph-name="uniE651" unicode="&#xe651;" 
d="M235 113q14 -41 57 -58q17 -6 33 -7h537h18l6 19l123 429q9 32 -9 56.5t-51 24.5h-524q-11 0 -18 -7.5t-7 -18t7 -18t18 -7.5h524q17 0 12 -16l-123 -429l24 18h-537q-6 0 -13 2.5t-13 6.5t-10.5 9.5t-6.5 11.5l-208 619q-3 7 -8 11.5t-11 5.5t-13 -1t-11 -7t-5.5 -11.5
t0.5 -13.5zM400 -90q0 55 -47 85q-25 15 -53 16q-27 0 -50 -13.5t-36.5 -37t-13.5 -50.5t13.5 -50.5t36.5 -37t50 -13.5q20 0 38.5 8t32 21.5t21.5 32.5t8 39zM250 -90q0 14 6.5 25.5t18 18t25.5 6.5q20 0 35 -14.5t15 -35.5t-15 -35.5t-35.5 -14.5t-35 14.5t-14.5 35.5z
M924 -90q0 55 -46 85q-25 15 -54 16q-41 0 -70.5 -29.5t-29.5 -71.5t29.5 -71.5t71 -29.5t70.5 29.5t29 71.5zM774 -90q0 21 15 35.5t35.5 14.5t35 -14.5t14.5 -35.5t-14.5 -35.5t-35 -14.5t-35.5 14.5t-15 35.5z" />
    <glyph glyph-name="uniE652" unicode="&#xe652;" 
d="M430 144h-306q2 25 18.5 41t36 22.5t38 15.5t23.5 21v6v6v6v5v5v6q-4 3 -10 15.5t-8 23.5q-1 1 -2.5 1.5t-3 2t-3 4t-2.5 6.5t-2 9q-1 6 1 10.5t5 6.5q-28 112 62 114q6 0 11.5 -1t10 -3t8 -4.5t5.5 -6.5q12 -1 20 -7.5t11 -16t4 -20t-0.5 -21.5t-3 -19.5t-3.5 -14.5
q2 -2 4.5 -6.5t1.5 -10.5q-1 -8 -3.5 -13.5t-5 -7t-5.5 -2.5q-1 -11 -7 -23.5t-10 -15.5v-8v-9v-7q0 -5 1 -10q3 -10 16 -17.5t28.5 -13t31 -13t26.5 -22t12 -34.5zM920 368q0 -5 -2.5 -10t-7.5 -7.5t-10 -2.5h-368q-8 0 -14 6t-6 14q0 6 2.5 10.5t7.5 7.5t10 3h368
q16 -5 20 -21zM920 266q0 -3 -1 -6t-3 -5.5t-4.5 -4.5t-5.5 -3t-6 -1h-368q-5 0 -10 2.5t-7.5 7.5t-2.5 10.5t2.5 10t7.5 7.5t10 3h368q2 0 5 -1t5 -2t4 -3t3.5 -4t2 -5t0.5 -6zM920 164.5q0 -8.5 -6 -14.5t-14 -6h-368q-5 0 -10 2.5t-7.5 7.5t-2.5 10.5t2.5 10t7.5 7.5
t10 3h368q8 0 14 -6t6 -14.5zM1022 552v-571q0 -26 -18 -43.5t-43 -17.5h-82q-2 0 -5 0.5t-5 1.5l-4 4q-2 1 -3.5 3.5t-2 5t-0.5 5.5q0 8 6 14t14 6h82q8 0 14 6t6 15v571q0 9 -6 14.5t-14 5.5h-449q-8 0 -14 6t-6 15v41q0 8 -6 14t-15 6h-408q-8 0 -14 -6t-6 -14v-653
q0 -9 6 -15t14 -6h102v62q0 3 1 6t3 5.5t4.5 4.5t5.5 3t7 1h81q9 0 15 -6t6 -14q0 -5 -2 -8.5t-4.5 -6.5t-6.5 -4.5t-8 -1.5h-61v-61q0 -9 -6 -14.5t-14 -5.5h-123q-25 0 -43 17.5t-18 43.5v653q0 8 2 16t6 14.5t9.5 12.5t12.5 10t15 6t16 2h408q26 0 43.5 -18t17.5 -43v-21
h429q25 0 43 -18t18 -43zM859 22q0 -9 -6 -15t-15 -6h-61v-61q0 -9 -6 -14.5t-14 -5.5h-449h-4q-2 0 -4 1t-3.5 2t-3 2.5t-2.5 3t-2 3.5t-1.5 4t-0.5 4q0 8 6 14t15 6h428v62q0 8 6 14t15 6h81q17 0 20 -16q1 -2 1 -4z" />
    <glyph glyph-name="uniE653" unicode="&#xe653;" 
d="M861 102l147 388q3 10 -3 19q-3 4 -7.5 6t-9.5 2h-489q-4 0 -7 -1t-5.5 -2.5t-4.5 -4.5t-3 -6t-1 -6q0 -6 3 -10.5t7.5 -7.5t10.5 -3h460l-131 -346h-370l-140 562v1q-7 23 -15.5 39t-20.5 26q-14 13 -32.5 19t-43.5 6h-136q-1 0 -2 -1q-16 0 -27.5 -12t-11.5 -28
q0 -17 12 -29t29 -12q9 0 16.5 3t13 8.5t8.5 13t3 16.5h95q14 0 24.5 -2.5t15 -5.5t9.5 -6q7 -7 13 -18t11 -29l163 -658q4 -17 7 -26t9.5 -22.5t16 -22.5t22.5 -16q-19 -22 -19 -51q0 -34 24 -58t58 -24q17 0 32 6.5t26 17.5t17.5 26t6.5 32q0 22 -11 40h123
q-3 -6 -5.5 -12.5t-3.5 -13.5t-1 -14q0 -22 10.5 -41t29.5 -30t41 -11q34 0 58 24t24 58t-24 57.5t-58 23.5h-4v0h-2h-265q-20 0 -32.5 3.5t-20 14t-11 19.5t-8.5 30l-14 56h374q14 0 19 13zM866 -115q0 -7 -2 -13t-6 -11t-9 -9t-11 -6t-13 -2q-11 0 -20.5 5.5t-15 15
t-5.5 20.5t5.5 20.5t15 14.5t20.5 5q27 0 38 -25q3 -8 3 -15zM560 -75q17 0 29 -11.5t12 -28.5q0 -7 -2 -13t-6 -11t-9 -9t-11 -6t-13 -2q-11 0 -20.5 5.5t-15 15t-5.5 20.5q0 17 12 28.5t29 11.5z" />
    <glyph glyph-name="uniE654" unicode="&#xe654;" 
d="M962 492v151h-898v-653h898v343q0 8 6 14t14 6q4 0 7 -1t5.5 -3t4.5 -4.5t3 -5.5t1 -6v-363q0 -3 -1 -6t-2 -5t-3 -4t-5 -3l-4 -2q-3 -1 -6 -1h-938q-9 0 -15 6t-6 15v693q0 9 6 15t15 6h938q9 0 15 -6t6 -15v-182q0 -5 -2.5 -9.5t-6.5 -7.5l-429 -287q-11 -8 -22 -1
l-384 244q-3 2 -5.5 5.5t-3 7.5t0 8t2.5 7q5 7 13 9t15 -2l373 -237z" />
  </font>
</defs>
</svg>
